<svg width="68" height="68" viewBox="0 0 68 55" fill="none" xmlns="http://www.w3.org/2000/svg">
<path d="M52.8438 14.3438C53.4062 14.9062 54.1094 15.1875 54.9531 15.1875C55.7969 15.1875 56.5 14.9062 57.0625 14.3438C57.7188 13.7812 58.0469 13.0781 58.0469 12.2344C58.0469 11.3906 57.7188 10.6875 57.0625 10.125C56.5 9.5625 55.7969 9.28125 54.9531 9.28125C54.1094 9.28125 53.4062 9.5625 52.8438 10.125C52.2812 10.6875 52 11.3906 52 12.2344C52 13.0781 52.2812 13.7812 52.8438 14.3438ZM37.7969 14.3438C38.4531 14.9062 39.2031 15.1875 40.0469 15.1875C40.8906 15.1875 41.5938 14.9062 42.1562 14.3438C42.7188 13.7812 43 13.0781 43 12.2344C43 11.3906 42.7188 10.6875 42.1562 10.125C41.5938 9.5625 40.8906 9.28125 40.0469 9.28125C39.2031 9.28125 38.4531 9.5625 37.7969 10.125C37.2344 10.6875 36.9531 11.3906 36.9531 12.2344C36.9531 13.0781 37.2344 13.7812 37.7969 14.3438ZM31.0469 0H63.9531V19.5469C63.9531 24.1406 62.3594 28.0312 59.1719 31.2188C55.9844 34.4062 52.0938 36 47.5 36C44.9688 36 42.4844 35.3906 40.0469 34.1719V25.4531H54.9531C54.9531 24.2344 54.2031 23.2031 52.7031 22.3594C51.2969 21.4219 49.5625 20.9531 47.5 20.9531C45.4375 20.9531 43.6562 21.4219 42.1562 22.3594C40.75 23.2031 40.0469 24.2344 40.0469 25.4531V18H31.0469V0ZM15.1562 30.9375C14.5938 30.2812 13.8906 29.9531 13.0469 29.9531C12.2031 29.9531 11.4531 30.2812 10.7969 30.9375C10.2344 31.5 9.95312 32.2031 9.95312 33.0469C9.95312 33.8906 10.2344 34.5938 10.7969 35.1562C11.4531 35.7188 12.2031 36 13.0469 36C13.8906 36 14.5938 35.7188 15.1562 35.1562C15.7188 34.5938 16 33.8906 16 33.0469C16 32.2031 15.7188 31.5 15.1562 30.9375ZM30.0625 30.9375C29.5 30.2812 28.7969 29.9531 27.9531 29.9531C27.1094 29.9531 26.4062 30.2812 25.8438 30.9375C25.2812 31.5 25 32.2031 25 33.0469C25 33.8906 25.2812 34.5938 25.8438 35.1562C26.4062 35.7188 27.1094 36 27.9531 36C28.7969 36 29.5 35.7188 30.0625 35.1562C30.7188 34.5938 31.0469 33.8906 31.0469 33.0469C31.0469 32.2031 30.7188 31.5 30.0625 30.9375ZM15.1562 45.2812C16.6562 46.125 18.4375 46.5469 20.5 46.5469C22.5625 46.5469 24.2969 46.125 25.7031 45.2812C27.2031 44.3438 27.9531 43.2656 27.9531 42.0469H13.0469C13.0469 43.2656 13.75 44.3438 15.1562 45.2812ZM4.04688 40.5V20.9531H36.9531V40.5C36.9531 45.0938 35.3594 48.9844 32.1719 52.1719C28.9844 55.3594 25.0938 56.9531 20.5 56.9531C15.9062 56.9531 12.0156 55.3594 8.82812 52.1719C5.64062 48.9844 4.04688 45.0938 4.04688 40.5Z" fill="white"/>
<defs>
<filter id="filter0_d" x="0.046875" y="0" width="67.9062" height="64.9531" filterUnits="userSpaceOnUse" color-interpolation-filters="sRGB">
<feFlood flood-opacity="0" result="BackgroundImageFix"/>
<feColorMatrix in="SourceAlpha" type="matrix" values="0 0 0 0 0 0 0 0 0 0 0 0 0 0 0 0 0 0 127 0"/>
<feOffset dy="4"/>
<feGaussianBlur stdDeviation="2"/>
<feColorMatrix type="matrix" values="0 0 0 0 0 0 0 0 0 0 0 0 0 0 0 0 0 0 0.25 0"/>
<feBlend mode="normal" in2="BackgroundImageFix" result="effect1_dropShadow"/>
<feBlend mode="normal" in="SourceGraphic" in2="effect1_dropShadow" result="shape"/>
</filter>
</defs>
</svg>
